<?xml version="1.0" encoding="utf-8"?>
<!-- Generator: Adobe Illustrator 28.0.0, SVG Export Plug-In . SVG Version: 6.00 Build 0)  -->
<svg version="1.1" id="Capa_1" xmlns="http://www.w3.org/2000/svg" xmlns:xlink="http://www.w3.org/1999/xlink" x="0px" y="0px"
	 viewBox="0 0 800 800" style="enable-background:new 0 0 800 800;" xml:space="preserve">
<style type="text/css">
	.st0{fill:#FFFFFF;}
</style>
<g>
	<path class="st0" d="M0,94.4h47v611.1H0V94.4z M75.7,705.6h26.5V94.4H75.7V705.6z M121.3,705.6h26.4V94.4h-26.4V705.6z
		 M182.4,705.6h57.8V94.4h-57.8V705.6z M286.5,705.6h28.9V94.4h-28.9V705.6z M360.3,705.6h119.8V94.4H360.3V705.6z M672.6,705.6
		h39.4V94.4h-39.4V705.6z M746.3,94.4v611.1H800V94.4H746.3z M528.2,705.6H554V94.4h-25.8V705.6z M590.9,705.6h25.8V94.4h-25.8
		V705.6z"/>
</g>
</svg>
