<?xml version="1.0" encoding="utf-8"?>
<!-- Generator: Adobe Illustrator 28.0.0, SVG Export Plug-In . SVG Version: 6.00 Build 0)  -->
<svg version="1.1" id="Capa_1" xmlns="http://www.w3.org/2000/svg" xmlns:xlink="http://www.w3.org/1999/xlink" x="0px" y="0px"
	 viewBox="0 0 800 800" style="enable-background:new 0 0 800 800;" xml:space="preserve">
<style type="text/css">
	.st0{fill:#FFFFFF;}
</style>
<g>
	<g>
		<path class="st0" d="M506.1,456.6c0,58.6-47.5,106.1-106.1,106.1s-106.1-47.5-106.1-106.1c0-58.6,47.5-106.1,106.1-106.1
			S506.1,397.9,506.1,456.6z M723.3,190.6c42.4,0,76.7,34.3,76.7,76.7v201.1v170.5c0,45.2-36.6,81.8-81.8,81.8H81.8
			C36.6,720.7,0,684.1,0,638.9V468.3V267.4l0,0c0-42.4,34.3-76.7,76.7-76.7h153.4l7.2-30.6c11-47.3,53.2-80.8,101.8-80.8h121.7
			c48.6,0,90.8,33.5,101.8,80.8l7.1,30.6L723.3,190.6L723.3,190.6z M160,301.4c0-21.2-17.2-38.4-38.4-38.4
			c-21.4,0-38.6,17.2-38.6,38.4s17.2,38.4,38.4,38.4C142.8,340,160,322.7,160,301.4z M589.2,456.6c0-104.5-84.8-189.2-189.2-189.2
			s-189.2,84.8-189.2,189.2S295.5,645.8,400,645.8S589.2,561.1,589.2,456.6z"/>
	</g>
</g>
</svg>
