<?xml version="1.0" encoding="utf-8"?>
<!-- Generator: Adobe Illustrator 28.0.0, SVG Export Plug-In . SVG Version: 6.00 Build 0)  -->
<svg version="1.1"
	 id="Layer_1" shape-rendering="geometricPrecision" text-rendering="geometricPrecision" image-rendering="optimizeQuality"
	 xmlns="http://www.w3.org/2000/svg" xmlns:xlink="http://www.w3.org/1999/xlink" x="0px" y="0px" viewBox="0 0 512 207.2"
	 style="enable-background:new 0 0 512 207.2;" xml:space="preserve">
<style type="text/css">
	.st0{fill:#FFFFFF;}
</style>
<path class="st0" d="M21.1,0h469.9c5.8,0,11,2.4,14.8,6.2l0,0c3.8,3.8,6.2,9.1,6.2,14.8v165.1c0,5.8-2.4,11.1-6.2,14.9
	c-3.8,3.8-9.1,6.2-14.9,6.2H21.1c-5.8,0-11.1-2.4-14.9-6.2C2.4,197.2,0,192,0,186.2V21.1C0,15.3,2.4,10,6.2,6.2S15.3,0,21.1,0z
	 M64.3,29.6c5.9,0,10.7,4.8,10.7,10.7c0,5.9-4.8,10.7-10.7,10.7c-5.9,0-10.7-4.8-10.7-10.7C53.6,34.4,58.4,29.6,64.3,29.6z
	 M64.3,148.8c5.9,0,10.7,4.8,10.7,10.7c0,5.9-4.8,10.7-10.7,10.7c-5.9,0-10.7-4.8-10.7-10.7C53.6,153.6,58.4,148.8,64.3,148.8z
	 M447.7,29.6c5.9,0,10.7,4.8,10.7,10.7c0,5.9-4.8,10.7-10.7,10.7c-5.9,0-10.7-4.8-10.7-10.7C437.1,34.4,441.8,29.6,447.7,29.6z
	 M447.7,148.8c5.9,0,10.7,4.8,10.7,10.7c0,5.9-4.8,10.7-10.7,10.7c-5.9,0-10.7-4.8-10.7-10.7C437.1,153.6,441.8,148.8,447.7,148.8z
	 M93.4,76.3l5.9,14.2h0.8l5.9-14.2h18.5L112.6,102l11.8,27.5h-18.9l-6.4-15.3h-0.8l-6.3,15.3h-18l11.6-27L74.1,76.3H93.4z
	 M144.6,76.3l4.7,18.7h0.6l4.8-18.7h18.8L158.1,115v14.5h-17V115l-15.3-38.7H144.6z M222.7,129.5h-45.9v-10.6l21.8-28.4l-0.3-0.5
	h-17.9l-1.5-13.6h43.4v10.6l-21.5,28.4l0.2,0.5h21.6L222.7,129.5L222.7,129.5z M242.2,112.5v-9.2c0-1.5,0.5-2.5,1.4-2.9
	c0.9-0.4,2.4-0.6,4.5-0.6h19.7v9.2c0,1.5-0.5,2.5-1.4,2.9c-0.9,0.4-2.4,0.6-4.5,0.6H242.2L242.2,112.5z M333.4,129.5h-42.6v-13.6
	H306V93.3l-15.1,1V80.7l19.6-4.4h13.5v39.6h9.5V129.5z M344,90.9l-2.2-12.7c7.1-2.2,14.3-3.2,21.4-3.2c2.8,0,5.2,0.1,7.1,0.3
	c1.9,0.2,3.9,0.6,5.9,1.3c2,0.7,3.6,1.6,4.9,2.8c2.7,2.7,4.1,6.9,4.1,12.5c0,5.6-1.6,9.8-4.8,12.4c-3.2,2.7-9.9,5.7-20.1,9.2v2.4h24
	v13.6h-43.7v-10.6c0-3.2,0.6-6.2,1.8-9.1c0.8-1.7,2.5-3.6,5.4-6c1.5-1.3,3.6-2.6,6.2-3.7c2.6-1.2,5-2.3,7.3-3.4
	c2.3-1.1,4.1-1.9,5.6-2.6v-4.6c-2.6-0.3-4.9-0.4-7.1-0.4C354.5,89.1,349.2,89.7,344,90.9L344,90.9z M419.6,95v-6.3
	c-1.7-0.3-4.5-0.4-8.3-0.4c-3.8,0-8.5,0.6-14.2,1.8L395,78.3c6.9-2.2,13.6-3.2,20.1-3.2c5.5,0,9.6,0.3,12.1,1s4.3,1.5,5.5,2.5
	c2.6,2.2,3.9,5.6,3.9,10c0,5.7-2.4,9.8-7.1,12.3v0.4c5.6,2.3,8.4,6.6,8.4,12.7c0,3-0.5,5.6-1.4,7.7c-0.9,2.1-2.1,3.8-3.5,4.9
	s-3.3,2.1-5.6,2.8c-3.5,1-8.3,1.4-14.6,1.4s-12.5-0.7-18.9-2.2l2.4-13.3c5.4,1.3,10,2,13.7,2c3.7,0,7-0.2,9.6-0.5v-6.2l-14.6-1.4
	V96.7L419.6,95z M463,184.3l26.1-26.1V49L463,22.9H49L22.9,49v109.2L49,184.3H463L463,184.3z"/>
</svg>
